<svg xmlns="http://www.w3.org/2000/svg" version="1.1" xmlns:xlink="http://www.w3.org/1999/xlink" xmlns:svgjs="http://svgjs.dev/svgjs" width="1000" height="234" viewBox="0 0 1000 234"><g transform="matrix(1,0,0,1,-0.6060606060606233,0.0793440040980613)"><svg viewBox="0 0 396 93" data-background-color="#ffffff" preserveAspectRatio="xMidYMid meet" height="234" width="1000" xmlns="http://www.w3.org/2000/svg" xmlns:xlink="http://www.w3.org/1999/xlink"><g id="tight-bounds" transform="matrix(1,0,0,1,0.2400000000000091,-0.031534155474872705)"><svg viewBox="0 0 395.52 93.06306831094975" height="93.06306831094975" width="395.52"><g><svg viewBox="0 0 395.52 93.06306831094975" height="93.06306831094975" width="395.52"><g transform="matrix(1,0,0,1,0,57.51670972130233)"><svg viewBox="0 0 395.52 35.54635858964741" height="35.54635858964741" width="395.52"><g id="textblocktransform"><svg viewBox="0 0 395.52 35.54635858964741" height="35.54635858964741" width="395.52" id="textblock"><g><svg viewBox="0 0 395.52 35.54635858964741" height="35.54635858964741" width="395.52"><g transform="matrix(1,0,0,1,0,0)"><svg width="395.52" viewBox="4 -29.45 333.23 29.95" height="35.54635858964741" data-palette-color="#ef4444"><g class="undefined-text-0" data-fill-palette-color="primary" id="text-0"><path d="M31.3 0L4 0 4-29.4 35.1-29.4 35.1-24.6 10.6-24.6 10.6-17.7 29.3-17.7 29.3-12.75 10.6-12.75 10.6-4.8 35.3-4.8 37.3-0.55Q37.3-0.35 35.95-0.18 34.6 0 31.3 0L31.3 0ZM66.1 0L42.3 0 42.8-4 42.8-29.4 49.4-29.4 49.4-4.8 70.1-4.8 72.1-0.55Q72.1-0.35 70.75-0.18 69.4 0 66.1 0L66.1 0ZM83.2 0L76.6 0 76.6-29.4 83.2-29.4 83.2 0ZM107.84 0L101.24 0 101.19-24.65 88.19-24.65 88.19-29.45 120.89-29.45 120.89-24.65 107.84-24.65 107.84 0ZM153.19 0L125.89 0 125.89-29.4 156.99-29.4 156.99-24.6 132.49-24.6 132.49-17.7 151.19-17.7 151.19-12.75 132.49-12.75 132.49-4.8 157.19-4.8 159.19-0.55Q159.19-0.35 157.84-0.18 156.49 0 153.19 0L153.19 0ZM180.19-11L164.19-11 164.19-16.8 180.19-16.8 180.19-11ZM210.74 0L196.84 0Q193.29 0 191.29-1 189.29-2 188.49-4 187.69-6 187.69-8.95L187.69-8.95 187.69-20.1Q187.69-24.9 189.84-27.18 191.99-29.45 196.84-29.45L196.84-29.45 211.89-29.45Q215.34-29.45 217.16-29.08 218.99-28.7 218.99-28.3L218.99-28.3 217.99-24.15Q217.14-24.3 212.96-24.48 208.79-24.65 200.84-24.65L200.84-24.65 198.29-24.65Q194.29-24.65 194.29-21.1L194.29-21.1 194.29-8.35Q194.29-6.65 195.16-5.73 196.04-4.8 198.29-4.8L198.29-4.8 200.34-4.8Q208.64-4.8 213.21-4.98 217.79-5.15 218.89-5.35L218.89-5.35 220.94-2.05Q220.94-1.8 220.11-1.3 219.29-0.8 217.09-0.4 214.89 0 210.74 0L210.74 0ZM229.23 0L221.93 0 236.58-29.4 246.43-29.4 261.03 0 253.33 0 250.38-6.35 232.48-6.35 229.23 0ZM241.18-24.9L234.28-11.25 248.53-11.25 241.68-24.9 241.18-24.9ZM296.98 0.5L296.98 0.5Q294.98 0.5 293.06-0.13 291.13-0.75 288.68-3.2L288.68-3.2 285.08-6.8Q282.88-9.05 280.26-10.1 277.63-11.15 273.68-11.15L273.68-11.15 272.13-11.15 272.13 0 265.53 0 265.53-25.4 265.03-29.45 287.18-29.45Q290.38-29.45 292.21-28.6 294.03-27.75 294.91-26.38 295.78-25 296.03-23.45 296.28-21.9 296.28-20.5L296.28-20.5 296.28-19.55Q296.28-18.45 295.98-17.1 295.68-15.75 294.83-14.45 293.98-13.15 292.41-12.25 290.83-11.35 288.28-11.2L288.28-11.2Q288.93-10.85 289.93-10.13 290.93-9.4 292.01-8.55 293.08-7.7 293.98-7 294.88-6.3 295.38-6L295.38-6Q297.18-4.95 298.58-4.55 299.98-4.15 300.88-4.1 301.78-4.05 301.93-4.05L301.93-4.05 300.93 0Q300.48 0.15 299.43 0.33 298.38 0.5 296.98 0.5ZM279.63-15.7L279.63-15.7Q281.53-15.7 283.03-15.78 284.53-15.85 285.73-15.95L285.73-15.95Q287.93-16.2 288.81-17.18 289.68-18.15 289.68-19.7L289.68-19.7 289.68-20.85Q289.68-22.45 288.83-23.55 287.98-24.65 285.78-24.65L285.78-24.65 272.13-24.65 272.13-15.95Q274.33-15.8 276.18-15.75 278.03-15.7 279.63-15.7ZM328.63 0L312.03 0Q308.63 0 307.03-0.3 305.43-0.6 305.43-1L305.43-1 307.43-5.35Q308.58-5.15 313.15-4.98 317.73-4.8 325.73-4.8L325.73-4.8 326.68-4.8Q328.83-4.8 329.73-5.58 330.63-6.35 330.63-8.2L330.63-8.2 330.63-9.2Q330.63-10.95 329.9-11.7 329.18-12.45 326.68-12.45L326.68-12.45 315.08-12.45Q310.03-12.45 307.73-14.33 305.43-16.2 305.43-20.45L305.43-20.45 305.43-21.25Q305.43-23.45 306.25-25.3 307.08-27.15 309.08-28.28 311.08-29.4 314.58-29.4L314.58-29.4 328.18-29.4Q331.58-29.4 333.68-29.05 335.78-28.7 335.78-28.3L335.78-28.3 334.78-24.1Q333.48-24.25 328.88-24.43 324.28-24.6 316.53-24.6L316.53-24.6 315.98-24.65Q313.68-24.65 312.88-23.73 312.08-22.8 312.03-21.4L312.03-21.4 312.03-20.55Q312.03-18.9 312.95-18.07 313.88-17.25 316.03-17.25L316.03-17.25 327.13-17.25Q330.33-17.25 332.58-16.6 334.83-15.95 336.03-14.23 337.23-12.5 337.23-9.15L337.23-9.15 337.23-8.35Q337.23-4.6 335.3-2.3 333.38 0 328.63 0L328.63 0Z" fill="#ef4444" data-fill-palette-color="primary"></path></g></svg></g></svg></g></svg></g></svg></g><g transform="matrix(1,0,0,1,165.97892462850896,0)"><svg viewBox="0 0 63.562150742982055 49.125067570892725" height="49.125067570892725" width="63.562150742982055"><g><svg xmlns="http://www.w3.org/2000/svg" xmlns:xlink="http://www.w3.org/1999/xlink" version="1.1" x="0" y="0" viewBox="5 15.221 90 69.55799999999999" enable-background="new 0 0 100 100" xml:space="preserve" height="49.125067570892725" width="63.562150742982055" class="icon-icon-0" data-fill-palette-color="accent" id="icon-0"><path fill-rule="evenodd" clip-rule="evenodd" d="M28.25 64.133c1.402 0 2.411 1.2 2.411 2.596 0 1.409-1.009 2.61-2.411 2.61-1.602 0-2.603-1.201-2.603-2.61C25.647 65.333 26.648 64.133 28.25 64.133L28.25 64.133zM78.164 84.779H21.836l-1.202-6.614h58.731L78.164 84.779zM20.033 74.546l-6.815-37.677 22.249 21.642L50.1 28.452l14.633 30.059 22.249-21.642-6.815 37.677H20.033zM71.948 64.133c1.402 0 2.604 1.2 2.604 2.596 0 1.409-1.202 2.61-2.604 2.61-1.401 0-2.604-1.201-2.604-2.61C69.345 65.333 70.547 64.133 71.948 64.133L71.948 64.133zM50.1 15.221c3.212 0 5.814 2.606 5.814 5.813 0 3.209-2.603 5.812-5.814 5.812-3.204 0-5.814-2.603-5.814-5.812C44.285 17.827 46.896 15.221 50.1 15.221L50.1 15.221zM10.014 26.045c2.803 0 5.007 2.206 5.007 5.01 0 2.807-2.204 5.014-5.007 5.014C7.402 36.068 5 33.862 5 31.055 5 28.251 7.402 26.045 10.014 26.045L10.014 26.045zM89.986 26.045c2.81 0 5.014 2.206 5.014 5.01 0 2.807-2.204 5.014-5.014 5.014-2.604 0-4.807-2.207-4.807-5.014C85.18 28.251 87.382 26.045 89.986 26.045L89.986 26.045zM50.1 61.121c2.203 0 4.013 1.81 4.013 4.006 0 2.416-1.81 4.212-4.013 4.212-2.202 0-4.205-1.796-4.205-4.212C45.895 62.931 47.897 61.121 50.1 61.121L50.1 61.121z" fill="#001f3f" data-fill-palette-color="accent"></path></svg></g></svg></g><g></g></svg></g><defs></defs></svg><rect width="395.52" height="93.06306831094975" fill="none" stroke="none" visibility="hidden"></rect></g></svg></g></svg>